<svg width="24" height="24" viewBox="0 0 24 24" fill="none" xmlns="http://www.w3.org/2000/svg">
<path d="M16 8L18 6M18 6L20 4M18 6L16 4M18 6L20 8M5 3C3.89617 3 3 3.89617 3 5V6C3 14.284 9.716 21 18 21H19C20.1038 21 21 20.1038 21 19V15.72C20.9997 15.2898 20.7242 14.908 20.316 14.772L15.823 13.274C15.3509 13.1171 14.8353 13.331 14.613 13.776L13.483 16.033C11.0345 14.9267 9.07332 12.9655 7.967 10.517L10.224 9.387C10.669 9.16467 10.8829 8.64905 10.726 8.177L9.228 3.683C9.09158 3.27485 8.70934 2.99975 8.279 3H5L16 8" stroke="white" stroke-width="2" stroke-linecap="round" stroke-linejoin="round"/>
</svg>
